<svg width="80" height="80" viewBox="0 0 80 80" fill="none" xmlns="http://www.w3.org/2000/svg">
<circle cx="40" cy="40" r="39.5" fill="url(#paint0_linear_519_1216)" stroke="#FFBECF"/>
<mask id="mask0_519_1216" style="mask-type:alpha" maskUnits="userSpaceOnUse" x="0" y="0" width="80" height="80">
<circle cx="40" cy="40" r="39.5" fill="url(#paint1_linear_519_1216)" stroke="#FFBECF"/>
</mask>
<g mask="url(#mask0_519_1216)">
<circle cx="76" cy="23" r="30" fill="#BA0025" fill-opacity="0.1"/>
<ellipse cx="38" cy="65" rx="38" ry="41" fill="url(#paint2_linear_519_1216)"/>
<path d="M67.9747 25.5581C67.6293 25.3224 67.2555 25.1312 66.8622 24.9893C66.5669 24.8806 66.2639 24.7938 65.9558 24.7297C65.8919 24.441 65.8057 24.1577 65.6978 23.8824C65.559 23.4883 65.3713 23.1132 65.1392 22.7658C65.0646 22.6697 64.9562 22.6056 64.8361 22.5865C64.7159 22.5674 64.593 22.5949 64.4924 22.6632C64.1638 22.9246 63.8689 23.2258 63.6144 23.5598C63.4331 23.7926 63.2672 24.0369 63.1178 24.2913C62.8217 24.2605 62.5237 24.2532 62.2266 24.2696C61.809 24.2809 61.3945 24.3436 60.9923 24.4564C60.8794 24.5 60.787 24.5844 60.7335 24.693C60.6799 24.8015 60.6691 24.9262 60.7032 25.0423C60.847 25.4342 61.039 25.8067 61.2748 26.1512C61.4429 26.3992 61.6268 26.6361 61.8254 26.8605C61.6906 27.1505 61.5805 27.4513 61.4963 27.7598C61.3806 28.1603 61.315 28.5737 61.3011 28.9904C61.3048 29.1124 61.3547 29.2285 61.4409 29.315C61.527 29.4016 61.6428 29.4521 61.7648 29.4563C62.1814 29.4417 62.5946 29.3754 62.9948 29.259C63.2785 29.1752 63.5566 29.0738 63.8277 28.9556C64.0483 29.1527 64.2815 29.3352 64.5259 29.5019C64.8705 29.7364 65.2428 29.9273 65.6345 30.0701C65.7518 30.1039 65.8776 30.0917 65.9862 30.036C66.0949 29.9804 66.1783 29.8855 66.2196 29.7706C66.3353 29.37 66.4009 28.9567 66.4148 28.54C66.4311 28.2345 66.4232 27.9282 66.3913 27.624C66.673 27.4673 66.9401 27.2857 67.1896 27.0816C67.5202 26.8263 67.8186 26.5317 68.0782 26.2043C68.1462 26.1036 68.1733 25.9808 68.1541 25.8607C68.1349 25.7407 68.0708 25.6325 67.9747 25.5581Z" fill="url(#paint3_linear_519_1216)"/>
</g>
<path d="M40.8554 52.8431C40.8743 52.9667 40.8932 53.0903 40.9121 53.2138C41.0759 53.21 41.2429 53.224 41.4071 53.2495C42.0751 53.3535 42.7749 53.6681 43.0201 54.1142C43.2638 54.5255 43.0343 55.104 42.6441 55.6454L42.3205 56.0994L42.8171 56.3707C42.8661 56.3979 42.9271 56.4465 42.9856 56.5098C43.3661 56.9212 43.5525 57.7179 43.2803 58.1412C43.0288 58.5986 42.2069 58.7401 41.4503 58.6955C41.2722 58.6863 41.1104 58.6738 40.9272 58.6518C40.8983 58.7734 40.8693 58.895 40.8404 59.0166C41.0226 59.0812 41.1864 59.1347 41.3738 59.1833C42.1476 59.3679 43.2198 59.5479 43.9888 58.6519C44.6498 57.7129 44.3765 56.5987 43.718 55.8289C43.601 55.7037 43.4637 55.5857 43.2876 55.492L43.4606 56.2172C43.899 55.5951 44.3714 54.5257 43.7282 53.6398C43.0981 52.8555 42.2065 52.7335 41.4277 52.7562C41.2353 52.7671 41.0437 52.7935 40.8554 52.8431Z" fill="#DA3761"/>
<circle cx="28.5" cy="43.5" r="3.5" fill="#DA3761"/>
<circle cx="30" cy="42" r="1" fill="#FFDFE7"/>
<circle cx="50.5" cy="43.5" r="3.5" fill="#DA3761"/>
<circle cx="52" cy="42" r="1" fill="#FFDFE7"/>
<defs>
<linearGradient id="paint0_linear_519_1216" x1="26.6667" y1="0" x2="75" y2="80" gradientUnits="userSpaceOnUse">
<stop stop-color="#FF9982"/>
<stop offset="0.283654" stop-color="#DD4079"/>
<stop offset="0.658654" stop-color="#DA3458"/>
<stop offset="1" stop-color="#741C2F"/>
</linearGradient>
<linearGradient id="paint1_linear_519_1216" x1="26.6667" y1="0" x2="75" y2="80" gradientUnits="userSpaceOnUse">
<stop stop-color="#FF9982"/>
<stop offset="0.283654" stop-color="#DD4079"/>
<stop offset="0.658654" stop-color="#DA3458"/>
<stop offset="1" stop-color="#741C2F"/>
</linearGradient>
<linearGradient id="paint2_linear_519_1216" x1="38" y1="24" x2="38" y2="106" gradientUnits="userSpaceOnUse">
<stop offset="0.346154" stop-color="#FFBECF"/>
<stop offset="1" stop-color="#D4819F"/>
</linearGradient>
<linearGradient id="paint3_linear_519_1216" x1="63.7318" y1="29.772" x2="64.3639" y2="24.6186" gradientUnits="userSpaceOnUse">
<stop stop-color="#F69685"/>
<stop offset="0.528846" stop-color="#FFD592"/>
</linearGradient>
</defs>
</svg>
